<svg height="800" width="800" xmlns="http://www.w3.org/2000/svg" viewBox="0 0 471.734 471.734" xml:space="preserve"><path d="M140.115 155.097a7.474 7.474 0 0 0 5.303 2.197 7.474 7.474 0 0 0 5.303-2.197 7.5 7.5 0 0 0 0-10.606l-46.376-46.376 10.607-10.607 48.589 48.589a7.498 7.498 0 0 0 10.606 0 7.5 7.5 0 0 0 0-10.606l-53.892-53.893c-14.621-14.621-38.412-14.621-53.033 0a7.499 7.499 0 0 0 0 10.606l72.893 72.893zm-36.689-77.276-9.687 9.687-9.698-9.698c6.112-2.912 13.272-2.9 19.385.011zM385.982 379.75c9.625-14.552 8.036-34.39-4.77-47.196l-36.684-36.684a7.5 7.5 0 0 0-10.606 0 7.5 7.5 0 0 0 0 10.606l31.38 31.38-10.607 10.607-29.173-29.173a7.5 7.5 0 0 0-10.606 0 7.5 7.5 0 0 0 0 10.606l34.474 34.474 21.211 21.211 23.305 23.305c1.464 1.465 3.384 2.197 5.303 2.197s3.839-.732 5.303-2.197a7.5 7.5 0 0 0 0-10.606l-18.53-18.53zm-11.002-11.001-9.679-9.679 9.679-9.678a22.58 22.58 0 0 1 0 19.357zM469.538 61.598l-16.889-16.889 13.531-14.073a7.5 7.5 0 0 0-.105-10.504l-16.236-16.22a7.5 7.5 0 0 0-10.5-.1l-24.876 23.924-16.649-16.649a7.5 7.5 0 0 0-10.606 0 7.5 7.5 0 0 0 0 10.606l16.442 16.442-12.155 11.69-16.21-16.21a7.5 7.5 0 0 0-10.606 0 7.5 7.5 0 0 0 0 10.606l16.003 16.003-93.006 89.448c-18.189-11.277-39.681-16.554-61.212-14.882-23.923 1.859-46.432 12.216-63.38 29.164l-16.143 16.142a7.5 7.5 0 0 0-.961 9.428c7.964 12.096 4.602 28.417-7.494 36.381l-22.039 14.51c-5.86 3.857-12.873 5.203-19.743 3.787-6.871-1.416-12.78-5.422-16.638-11.282a7.502 7.502 0 0 0-11.567-1.179l-23.875 23.876c-22.675 22.675-35.162 52.822-35.162 84.889 0 29.553 10.614 57.471 30.027 79.417L2.197 457.215a7.5 7.5 0 0 0 0 10.606c1.464 1.465 3.384 2.197 5.303 2.197s3.839-.732 5.303-2.197l37.291-37.292c21.945 19.413 49.864 30.027 79.417 30.027 32.066 0 62.214-12.487 84.889-35.162l23.875-23.875a7.5 7.5 0 0 0-1.179-11.568c-12.096-7.964-15.458-24.284-7.495-36.381l14.51-22.039c7.964-12.096 24.285-15.458 36.381-7.495a7.497 7.497 0 0 0 9.427-.961l16.142-16.142c16.951-16.951 27.309-39.464 29.166-63.391 1.67-21.534-3.61-43.03-14.894-61.219l99.83-103.83 16.239 16.238c1.464 1.465 3.384 2.197 5.303 2.197s3.839-.732 5.303-2.197a7.5 7.5 0 0 0 0-10.606L430.563 67.68l11.688-12.156 16.681 16.681c1.464 1.465 3.384 2.197 5.303 2.197s3.839-.732 5.303-2.197a7.5 7.5 0 0 0 0-10.607zm-174.082 234.73L283.3 308.484c-18.204-8.389-40.364-2.443-51.716 14.8l-14.51 22.039c-10.813 16.424-8.336 37.804 4.802 51.384l-18.082 18.082c-19.842 19.841-46.222 30.769-74.282 30.769s-54.441-10.928-74.282-30.77c-19.842-19.842-30.769-46.222-30.769-74.282s10.927-54.441 30.769-74.282l18.075-18.075c5.574 5.413 12.58 9.14 20.373 10.745 10.797 2.223 21.812.111 31.017-5.95l22.039-14.51c17.243-11.352 23.189-33.511 14.799-51.716l12.157-12.157c27.542-27.542 69.467-32.873 102.778-14.11l-95.923 92.254a7.5 7.5 0 0 0-.105 10.709l26.163 26.163a7.5 7.5 0 0 0 5.303 2.197h.074a7.498 7.498 0 0 0 5.333-2.302l92.244-95.94c18.774 33.314 13.447 75.247-14.101 102.796zm-83.655-22.766-15.347-15.347L373.263 88.17l8.56 8.559-170.022 176.833zm180.42-187.648-8.145-8.144 60.361-58.051 5.83 5.824-58.046 60.371z"/><path d="M148.449 288.335a7.5 7.5 0 0 0-10.606 0 7.5 7.5 0 0 0 0 10.606l33.234 33.234c1.464 1.465 3.384 2.197 5.303 2.197s3.839-.732 5.303-2.197a7.5 7.5 0 0 0 0-10.606l-33.234-33.234zM109.387 327.397a7.498 7.498 0 0 0-11.212.685l-42.625 54.54a7.5 7.5 0 1 0 11.818 9.237l37.406-47.862 21.248 21.247-47.863 37.406a7.5 7.5 0 0 0 4.624 13.41 7.464 7.464 0 0 0 4.613-1.591l54.54-42.625a7.5 7.5 0 0 0 .685-11.212l-33.234-33.235z"/></svg>