<svg xmlns="http://www.w3.org/2000/svg" width="800" height="800" viewBox="0 0 32 32" xml:space="preserve"><path d="m15.124 27.897.011.002-.145-.019.053.006.081.011zm.029.004h.003l.02.003-.023-.003zm-.005 0h.005l-.018-.002.013.002zm.008.001.039.005-.022-.003-.022-.002h.005zm12.66-21.379-.035.026c.165.189.327.38.465.591.195.299.377.61.564.917a.814.814 0 0 1 .101.473.88.88 0 0 1 .207.531c.019.643.022 1.285.011 1.927.048.001.096.005.143.006a.818.818 0 0 1 .743.504c.007 0 .012-.004.019-.004.456 0 .877.393.861.863-.026.792-.05 1.585-.058 2.378-.01.841.02 1.685-.002 2.528-.018.763-.062 1.529-.074 2.294-.028 1.505.12 3.006.096 4.509a.793.793 0 0 1-.783.784c-.022 0-.039-.011-.06-.013-.03.005-.056.019-.087.021a7.137 7.137 0 0 1-.76-.007c.087.243.172.488.268.729.274.629.574 1.247.791 1.898.141.427-.161.901-.578 1.017a.832.832 0 0 1-.636-.084c-.195-.115-.305-.285-.379-.494-.1-.278-.19-.559-.297-.834-.128-.288-.27-.567-.395-.856a18.616 18.616 0 0 1-.528-1.347c-.017-.049-.008-.099-.014-.149-.128-.008-.255-.019-.383-.025-.48-.023-.962-.016-1.444-.001a67.454 67.454 0 0 1-.798 2.997.808.808 0 0 1-.983.56c-.018-.005-.031-.019-.048-.024-.262.228-.654.297-.961.104-.689-.433-1.185-1.108-1.672-1.751-.042.028-.078.064-.122.09-.375.217-.757.435-1.164.584-.694.255-1.377.532-2.113.64a9.426 9.426 0 0 1-1.343.086c-.187 0-.373 0-.56-.006-.213-.009-.425-.045-.635-.077l-.036-.004.014.002h-.004l-.011-.001h-.004l-.009-.001h-.003a5.357 5.357 0 0 1-1.001-.194c-.367-.111-.704-.295-1.054-.448-.146-.064-.297-.118-.439-.195-.154-.083-.3-.182-.448-.272-.362.492-.725.984-1.108 1.46-.138.173-.413.261-.626.261a.882.882 0 0 1-.564-.219c-.039.034-.069.077-.115.103-.397.233-.875.082-1.116-.293-.279-.431-.576-.847-.855-1.278-.169-.257-.325-.526-.502-.777a26.483 26.483 0 0 0-.4-.549l-.047-.052c-.029.062-.061.123-.09.185-.318.676-.664 1.338-.962 2.026a8.7 8.7 0 0 0-.13.338c-.074.202-.175.363-.365.475a.806.806 0 0 1-.61.08.8.8 0 0 1-.472-.365c-.098-.167-.154-.422-.08-.61.267-.682.56-1.359.875-2.021.277-.579.542-1.164.801-1.751.01-.028.019-.057.027-.085.019-.31-.008-.626-.011-.936a61.025 61.025 0 0 1-.01-1.212c.004-.84.011-1.681.049-2.521-.115-.003-.23-.002-.345-.006-1.154-.04-2.31-.012-3.464-.006a.818.818 0 0 1-.811-.811c0-.049.02-.092.028-.139a22.392 22.392 0 0 1-.225-2.204A58.928 58.928 0 0 1 1 13.297c0-.201.082-.38.201-.527.016-.421.37-.803.803-.803h.023l.642.024c.865.03 1.732.076 2.599.086.295.004.59-.003.886-.004a.634.634 0 0 1-.004-.406c.452-1.234.833-2.498 1.357-3.706.135-.31.274-.616.413-.924-.132-.062-.262-.13-.395-.189-.342-.142-.683-.288-1.023-.433-.692-.289-1.396-.552-2.09-.834-.211-.086-.378-.177-.496-.381a.831.831 0 0 1 .297-1.136.907.907 0 0 1 .437-.12c.072 0 .142.011.203.036 1.15.479 2.294.973 3.436 1.467.093.041.183.088.276.13.223-.514.448-1.026.696-1.531.133-.271.43-.411.723-.411.149 0 .297.036.423.109.413.241.508.74.301 1.148-.23.457-.444.922-.661 1.385.348.171.696.344 1.052.5.387.156.783.279 1.165.446.381.168.759.347 1.139.523.274.108.554.195.836.274a.856.856 0 0 1 .592 1.042.841.841 0 0 1-.389.504c-.179.105-.451.164-.652.086-.131-.05-.26-.103-.388-.157a7.134 7.134 0 0 1-.704-.33 6.745 6.745 0 0 0-.662-.307c-.77-.317-1.564-.579-2.316-.94-.121-.055-.242-.118-.363-.178-.094.199-.192.396-.28.598-.252.623-.478 1.257-.707 1.886-.225.617-.465 1.227-.691 1.843h.084c.257 0 .518.002.777.004.536.002 1.072.008 1.607-.018.181-.008.361-.023.542-.038.072-.006.143-.008.215-.002.271.02.466.107.672.283.123.106.191.262.235.425a5.12 5.12 0 0 1 .93-.561 16.85 16.85 0 0 1 1.22-.488c.369-.136.74-.319 1.126-.391.856-.162 1.715-.202 2.581-.202h.129a.912.912 0 0 1 .678.314c.29.037.573.086.859.151.257.058.522.094.769.189.207.08.425.14.632.224.246.099.465.235.69.366-.013-.151-.027-.303-.038-.454-.034-.462.413-.851.851-.851.035 0 .063.016.097.02.057-.013.11-.036.17-.038a70.146 70.146 0 0 1 2.053-.046h.708c.303.002.608.004.911-.002.432-.005.863-.018 1.294-.02.003-.174.008-.349.003-.523-.014-.449-.038-.899-.056-1.348l.002-.01c-.035-.04-.075-.073-.106-.118-.222-.328-.413-.676-.643-.996-.12-.141-.243-.278-.36-.422-.184.119-.371.233-.555.354-.311.203-.622.407-.937.604-.159.102-.311.215-.47.317-.142.094-.289.179-.429.275-.355.243-.871.07-1.074-.281-.227-.385-.074-.837.281-1.075.482-.321.971-.638 1.455-.96.252-.168.5-.344.75-.522-.234-.308-.469-.615-.697-.926-.136-.186-.15-.48-.09-.692a.9.9 0 0 1 1.105-.628c.241.068.395.215.536.413.202.282.405.561.605.843l.182-.128c.271-.188.56-.353.845-.524a23.766 23.766 0 0 1 1.908-1.042c.145-.069.287-.114.438-.114a.851.851 0 0 1 .72.419.844.844 0 0 1 .084.652c-.054.195-.199.417-.389.506-.528.247-1.052.504-1.559.793-.406.229-.824.449-1.204.724zM5.565 17.461c.512-.012 1.027-.026 1.539-.024.496.002.995.012 1.491-.006.047-.001.087.019.132.025.046-.16.084-.323.138-.48.146-.431.343-.843.554-1.246.269-.515.579-1.03.934-1.512-.027-.052-.064-.098-.078-.158a1.601 1.601 0 0 1-.041-.463l-.248.011c-.343.012-.684.016-1.025.018-.722.002-1.441.002-2.163.01-1.369.017-2.734.024-4.102.001-.009.75-.02 1.502.009 2.252.014.341.038.68.068 1.019.015.172.032.344.046.517.916.021 1.832.059 2.746.036zm5.09 8.324c.024-.033.052-.055.077-.084l-.033-.026c-.148-.134-.277-.283-.411-.429-.12-.131-.245-.257-.361-.393-.151-.178-.287-.371-.425-.56a6.974 6.974 0 0 1-.602-.985c-.417-.821-.63-1.748-.67-2.665-.018-.405.028-.805.066-1.206.011-.12.031-.236.047-.354-.254-.005-.508-.008-.761-.011a34.432 34.432 0 0 0-.086 2.247c.002.379-.004.757-.004 1.136-.002.345.016.688.018 1.033 0 .068-.012.134-.015.201.51.578.998 1.172 1.423 1.816.315.474.619.954.924 1.433.261-.391.54-.772.813-1.153zm9.424-.322c.233-.134.444-.295.656-.457.317-.245.64-.485.941-.749a6.31 6.31 0 0 0 .765-.811 8.913 8.913 0 0 0 1.029-1.703c.15-.393.266-.802.333-1.219.035-.345.057-.691.06-1.038a8.703 8.703 0 0 0-.029-.983 7.199 7.199 0 0 0-.395-1.428 7.28 7.28 0 0 0-.396-.796c-.174-.297-.388-.576-.593-.853a5.842 5.842 0 0 0-.805-.791 9.617 9.617 0 0 0-.714-.505c-.175-.111-.361-.201-.54-.307-.108-.064-.213-.134-.325-.193-.146-.054-.293-.105-.438-.164-.203-.083-.419-.124-.63-.175-.223-.054-.44-.118-.668-.151-.253-.038-.502-.09-.753-.144a.72.72 0 0 1-.268-.118 11.2 11.2 0 0 0-1.24.067 5.851 5.851 0 0 0-.587.115c-.243.062-.476.164-.712.255-.409.158-.823.311-1.228.478a4.715 4.715 0 0 0-.719.416 7.934 7.934 0 0 0-1.085 1.091 10.201 10.201 0 0 0-1.104 1.863c-.134.343-.233.695-.334 1.049-.095.329-.195.657-.254.994-.04.315-.077.633-.101.95-.026.344-.011.684.025 1.023.066.424.166.838.318 1.239.218.479.489.923.801 1.347.333.4.69.777 1.096 1.101.346.265.699.517 1.078.736.195.111.399.195.602.287.168.076.332.158.499.234.438.167.9.251 1.363.32a8.1 8.1 0 0 0 1.691-.002 5.177 5.177 0 0 0 1.001-.255c.318-.116.639-.231.954-.353.244-.109.476-.239.706-.37zm3.317 1.228c.086-.301.176-.602.255-.904.087-.336.158-.675.232-1.014l-.124.006a.715.715 0 0 1-.41-.122 5.142 5.142 0 0 1-.401.446c-.164.158-.344.298-.519.444.181.237.359.477.539.714.129.159.28.292.428.43zm5.861-3.431c-.016-.34-.029-.681-.046-1.022-.036-.785-.098-1.575-.098-2.364.002-.759.028-1.515.062-2.274.074-1.664-.026-3.332-.005-4.996-.235-.007-.471-.011-.706-.03a11.54 11.54 0 0 0-.745-.042 48.181 48.181 0 0 0-1.613.002c-.987.013-1.972.064-2.956.112l.012.168c.017.096.037.191.058.286a.932.932 0 0 1-.038.498c.182.171.362.346.516.541.203.261.381.53.564.805.116.171.231.343.321.53.066.142.13.285.197.426.187.393.379.806.48 1.232.102.427.191.859.235 1.296.038.367.01.737-.026 1.104-.042.437-.094.875-.171 1.304a7.117 7.117 0 0 1-.863 2.267c.229-.003.458-.011.687-.011a52.273 52.273 0 0 1 .757.003c.387 0 .775-.002 1.162.016.482.024.965.05 1.445.098.261.028.516.045.771.051zm-8.564-.12c-.016.021-.034.04-.05.06l-.072.098.122-.158zm1.002-1.464c.151-.325.269-.664.353-1.013.046-.185.068-.376.094-.566.018-.136.034-.269.028-.405-.016-.409-.329-.751-.751-.751-.385 0-.785.343-.751.751.011.129.002.258-.013.387a4.069 4.069 0 0 1-.224.824c-.153.312-.369.583-.582.857l.054-.071c-.197.252-.401.518-.644.731a3.743 3.743 0 0 1-.577.306c-.482.195-.981.313-1.488.434-.451.106-.714.612-.594 1.046a.864.864 0 0 0 1.048.596 8.442 8.442 0 0 0 1.644-.57c.227-.106.453-.217.66-.359a3.28 3.28 0 0 0 .397-.319c.113-.104.203-.233.295-.355.193-.254.38-.511.566-.77.173-.241.358-.484.485-.753z" style="fill:#111918"/></svg>