<svg xmlns="http://www.w3.org/2000/svg" width="800" height="800" viewBox="0 0 38.911 75.844" xml:space="preserve"><path d="M33.333 50.077c-2.404-4.207 0-10.805 0-10.805 3.438-8.963-5.051-10.923-10.222-11.306h-.002V13.075l.001-.001a2.217 2.217 0 0 0 1.13-1.937V9.704h1.396a1.34 1.34 0 0 0 1.347-1.338c0-.741-.602-1.339-1.347-1.339H24.24v-.67h1.396c.745 0 1.347-.598 1.347-1.338 0-.74-.602-1.338-1.347-1.338H24.24V2.222C24.24 1.003 23.23 0 21.98 0h-5.051c-1.226 0-2.236 1.003-2.236 2.222V3.68h-1.395a1.34 1.34 0 0 0-1.347 1.338 1.34 1.34 0 0 0 1.347 1.338h1.395v.67h-1.395a1.34 1.34 0 0 0-1.347 1.339 1.34 1.34 0 0 0 1.347 1.338h1.395v1.434a2.22 2.22 0 0 0 1.121 1.93v14.899c-5.172.36-13.673 2.324-10.236 11.305 0 0 2.429 6.599 0 10.804-2.405 4.184-16.884 22.781 13.276 25.77h1.203c30.16-2.988 15.681-21.587 13.276-25.768zM20.754 7.027V3.346c0-.383.287-.67.673-.67a.67.67 0 0 1 .673.67v6.119a.68.68 0 0 1-.048.239.65.65 0 0 1-.625.43.65.65 0 0 1-.626-.43c-.023-.072-.047-.143-.047-.239V7.027zm-3.921 0V3.346c0-.383.289-.67.674-.67a.67.67 0 0 1 .673.67v6.119a.68.68 0 0 1-.048.239.65.65 0 0 1-.625.43.65.65 0 0 1-.626-.43c-.023-.072-.048-.143-.048-.239V7.027zm2.623 35.903c3.103 0 5.626 2.509 5.626 5.593 0 3.083-2.524 5.569-5.626 5.569s-5.604-2.486-5.604-5.569a5.596 5.596 0 0 1 5.604-5.593zm6.18 20.867H13.298a1.341 1.341 0 0 1-1.347-1.34c0-.74.602-1.338 1.347-1.338h12.338c.745 0 1.347.598 1.347 1.338 0 .743-.602 1.34-1.347 1.34z"/></svg>