<svg height="800" width="800" xmlns="http://www.w3.org/2000/svg" viewBox="0 0 512 512" xml:space="preserve"><path d="M494.208 31.448 481.28 18.499c-23.701-23.659-62.251-23.638-85.909.021l-29.397 29.397c-6.528 6.549-10.219 15.595-10.112 24.811.085 5.547 1.493 10.859 4.117 15.531l-94.037 94.037c-61.867-31.893-173.12 17.195-220.587 64.683C16.107 276.205 0 315.096 0 356.461s16.107 80.256 45.355 109.504c30.187 30.187 69.824 45.269 109.504 45.269 39.637 0 79.317-15.083 109.504-45.269 46.976-46.997 95.488-156.373 65.536-218.624l94.635-94.656c12.48 6.955 29.483 4.843 39.957-5.611l29.717-29.717C505.685 105.859 512 90.627 512 74.392c0-16.213-6.315-31.467-17.792-42.944zM128 361.987a21.277 21.277 0 0 1-15.083-6.251c-8.341-8.341-8.341-21.845 0-30.165l42.667-42.667c8.341-8.341 21.824-8.341 30.165 0 8.341 8.32 8.341 21.824 0 30.165l-42.667 42.667A21.273 21.273 0 0 1 128 361.987zm100.416-6.251-42.667 42.667a21.275 21.275 0 0 1-15.083 6.251 21.277 21.277 0 0 1-15.083-6.251c-8.341-8.341-8.341-21.845 0-30.165l42.667-42.667c8.341-8.341 21.824-8.341 30.165 0 8.342 8.32 8.342 21.824.001 30.165zM464.043 87.171l-24.149 24.149c-12.672-7.04-29.12-5.227-39.915 5.589l-98.517 98.517-38.848 38.848c-1.365-1.408-2.731-2.816-4.139-4.181l137.344-137.344c6.357-6.357 9.92-15.147 9.813-24.128-.085-5.632-1.557-11.051-4.224-15.808l24.128-24.128c7.019-7.061 18.517-7.061 25.579 0l12.928 12.949c3.413 3.413 5.291 7.936 5.291 12.757a17.97 17.97 0 0 1-5.291 12.78z"/></svg>