<svg height="800" width="800" version="1.1" id="_x32_" xmlns="http://www.w3.org/2000/svg" viewBox="0 0 512 512" xml:space="preserve"><style>.st0{fill:#000}</style><path class="st0" d="M462.658 22.305 421.62 61.43l28.506 28.5 39.125-41.04zM511.546 13.882 497.665 0l-7.225 6.46-5.973-5.959-18.188 16.271 28.5 28.5 16.281-18.188-5.978-5.968zM475.496 83.972c-1.039-1.038-2.578-1.189-3.452-.321L461.08 94.624c-.864.868-.722 2.398.316 3.437l7.516 7.518c1.044 1.057 2.583 1.19 3.448.321l10.964-10.954c.873-.87.727-2.418-.308-3.466l-7.52-7.508zM498.996 60.458c-1.038-1.02-2.583-1.171-3.447-.303L484.585 71.11c-.873.878-.727 2.418.312 3.456l7.522 7.518c1.034 1.048 2.573 1.19 3.446.302l10.964-10.944c.864-.878.727-2.408-.312-3.466l-7.521-7.518zM414.391 51.061c1.039 1.039 2.579 1.18 3.442.312l10.969-10.964c.868-.878.727-2.408-.308-3.446l-7.521-7.518c-1.039-1.039-2.588-1.19-3.451-.312l-10.969 10.945c-.86.879-.722 2.418.321 3.466l7.517 7.517zM437.896 27.556c1.034 1.058 2.573 1.19 3.442.312l10.968-10.963c.864-.86.727-2.399-.312-3.448l-7.521-7.516c-1.044-1.04-2.588-1.181-3.451-.312l-10.964 10.964c-.869.878-.722 2.399.316 3.448l7.522 7.515zM260.34 294.449l-43.152-43.148 99.171-95.54c-42.142-30.804-90.7-36.319-126.359-.66-7.894 7.894-17.07 24.194-25.611 29.898-5.151 3.428 18.986 31.324-18.523 57.425-35.881 24.978-51.274-12.333-56.973-7.582-12.13 10.114-41.301 22.305-58.62 38.681C-21.314 322.27-1.605 398.809 56.02 456.434c57.62 57.624 134.164 77.333 182.921 25.752 16.371-17.329 28.562-46.482 38.681-58.635 4.75-5.695-32.576-21.088-7.598-56.963 26.112-37.51 54.013-13.363 57.45-18.519 5.694-8.555 21.994-17.716 29.884-25.61 35.942-35.942 30.049-84.992-1.407-127.355l-95.611 99.345zM75.039 456.651l-9.619-9.614-9.618-9.622 60.897-77.976 18.154 18.161 18.161 18.16-77.975 60.891zm86.876-180.023c-4.528 4.789-9.278 8.812-14.104 11.984-5.26 3.438-10.52 5.808-15.634 7.026-5.841 1.397-11.224 1.208-15.583-.548-1.907-.774-3.635-1.889-4.99-3.248-.354-.359-.68-.727-.977-1.124a11.656 11.656 0 0 1-1.8-3.126l-.028-.094-.043-.076c-1.908-3.834-.699-8.556 2.824-10.993 3.452-2.418 8.121-1.982 11.096.973.364.358.704.765 1.002 1.2a8.714 8.714 0 0 1 1.535 5.666l-.237 2.814 2.739-.699a31.176 31.176 0 0 0 1.729-.51c3.838-1.246 8.05-3.456 12.163-6.393 4.008-2.824 8.078-6.412 12.083-10.643a129.1 129.1 0 0 0 2.852-3.126l2.819-3.267a109.219 109.219 0 0 1 6.039-6.469c4.529-4.486 8.769-7.895 12.957-10.426 2.421-1.454 4.811-2.588 7.101-3.362 2.64-.888 5.185-1.312 7.569-1.246 2.545.057 5.043.718 7.054 1.889.496.274.959.586 1.45.954l.08.066.085.057a6.72 6.72 0 0 1 1.403 1.114c.316.302.604.642.859 1.02.274.397.506.812.704 1.247l.618 1.246-.094.075.094 1.096c.227 2.72-1.011 5.364-3.229 6.903a7.588 7.588 0 0 1-9.704-.868 6.768 6.768 0 0 1-.863-1.03 7.665 7.665 0 0 1-.958-1.907l-.761-2.248-2.092 1.132a30.84 30.84 0 0 0-3.758 2.362c-3.267 2.332-6.748 5.477-10.62 9.613a157.017 157.017 0 0 0-5.378 6.082l-1.356 1.634-1.478 1.746a98.625 98.625 0 0 1-3.168 3.504zm39.705 69.458-35.258-35.253 9.623-9.614 35.249 35.253-9.614 9.614zM270.265 327c-.77 2.276-1.903 4.674-3.362 7.092-2.531 4.212-5.936 8.443-10.421 12.976a129.353 129.353 0 0 1-6.469 6.035l-3.258 2.804a82.154 82.154 0 0 0-3.135 2.871c-4.236 4.004-7.82 8.065-10.653 12.068-2.932 4.127-5.137 8.329-6.383 12.163a27.573 27.573 0 0 0-.501 1.719l-.703 2.747 2.814-.236a8.625 8.625 0 0 1 5.661 1.549c.43.284.827.623 1.195.982a8.712 8.712 0 0 1 .986 11.116c-2.45 3.504-7.177 4.721-11.006 2.814l-.08-.048-.09-.019a12.052 12.052 0 0 1-3.12-1.794 10.59 10.59 0 0 1-1.119-.991c-1.356-1.351-2.475-3.079-3.249-4.996-1.756-4.345-1.95-9.737-.552-15.573 1.223-5.118 3.588-10.378 7.03-15.629 3.164-4.835 7.196-9.575 11.98-14.109a96.76 96.76 0 0 1 3.513-3.173l1.748-1.482 1.619-1.351c2.201-1.851 4.24-3.636 6.091-5.382 4.127-3.862 7.277-7.348 9.619-10.615a31.8 31.8 0 0 0 2.356-3.74l1.119-2.106-2.252-.765a7.517 7.517 0 0 1-2.932-1.823 7.578 7.578 0 0 1-.864-9.698c1.544-2.229 4.193-3.456 6.913-3.23l1.091.095.07-.095 1.162.576c.529.236.95.463 1.336.746.368.265.712.548 1.029.85.416.416.789.897 1.1 1.417l.057.075.066.085c.368.482.685.954.954 1.436 1.171 2.03 1.837 4.523 1.89 7.054.062 2.401-.358 4.951-1.25 7.585z"/><path class="st0" d="m224.373 251.367 17.953 17.943 17.943 17.953 183.742-190.92-28.808-28.793z"/></svg>